<svg width="606" height="65" viewBox="0 0 606 65" fill="none" xmlns="http://www.w3.org/2000/svg">
<path d="M25.511 13.8L29.927 20.776L9.159 32.904L38.119 49.928L33.575 57.128L0.422997 36.52V29.352L25.511 13.8ZM35.815 64.104L27.911 60.488L56.711 0.711998L64.551 4.328L35.815 64.104ZM98.35 43.432H85.358L83.022 53H72.046L85.614 8.648H98.35L111.918 53H100.686L98.35 43.432ZM87.022 35.816H96.622L91.822 16.2L87.022 35.816ZM377.727 40.04C377.727 42.792 377.002 45.224 375.551 47.336C374.122 49.448 372.063 51.1013 369.375 52.296C366.687 53.4907 363.455 54.088 359.679 54.088C355.498 54.088 351.988 53.48 349.151 52.264C346.335 51.0267 343.999 49.5013 342.143 47.688L347.455 41.8C349.098 43.2293 350.911 44.3387 352.895 45.128C354.879 45.896 357.055 46.28 359.423 46.28C360.895 46.28 362.186 46.0667 363.295 45.64C364.404 45.2133 365.268 44.5947 365.887 43.784C366.506 42.9733 366.815 41.992 366.815 40.84C366.815 39.752 366.57 38.8347 366.079 38.088C365.588 37.3413 364.756 36.6693 363.583 36.072C362.431 35.4747 360.82 34.8667 358.751 34.248C355.295 33.1813 352.511 32.008 350.399 30.728C348.308 29.448 346.783 27.9653 345.823 26.28C344.884 24.5947 344.415 22.632 344.415 20.392C344.415 17.6827 345.162 15.368 346.655 13.448C348.17 11.528 350.196 10.0667 352.735 9.064C355.274 8.04 358.068 7.528 361.119 7.528C364.554 7.528 367.583 8.02933 370.207 9.032C372.831 10.0133 375.103 11.4213 377.023 13.256L372.063 18.952C370.57 17.6933 368.959 16.7653 367.231 16.168C365.503 15.5493 363.743 15.24 361.951 15.24C360.628 15.24 359.466 15.4107 358.463 15.752C357.46 16.072 356.682 16.552 356.127 17.192C355.572 17.832 355.295 18.632 355.295 19.592C355.295 20.5307 355.562 21.32 356.095 21.96C356.628 22.6 357.556 23.208 358.879 23.784C360.202 24.3387 362.036 24.9893 364.383 25.736C367.178 26.5893 369.567 27.6133 371.551 28.808C373.556 29.9813 375.082 31.464 376.127 33.256C377.194 35.048 377.727 37.3093 377.727 40.04ZM580.553 13.8L605.577 29.288V36.52L580.649 52.008L576.073 45.128L596.873 32.904L576.073 21.064L580.553 13.8Z" fill="#C778DD"/>
<path d="M115.605 53V19.016H124.437L125.141 22.952C126.656 21.2453 128.256 19.976 129.941 19.144C131.626 18.312 133.546 17.896 135.701 17.896C138.602 17.896 140.885 18.7813 142.549 20.552C144.213 22.3227 145.045 24.8187 145.045 28.04V53H134.933V30.952C134.933 29.5653 134.837 28.4667 134.645 27.656C134.453 26.824 134.112 26.2373 133.621 25.896C133.152 25.5333 132.501 25.352 131.669 25.352C130.965 25.352 130.272 25.512 129.589 25.832C128.928 26.1307 128.277 26.568 127.637 27.144C126.997 27.72 126.357 28.4133 125.717 29.224V53H115.605ZM184.572 51.016C183.249 51.8693 181.649 52.5947 179.772 53.192C177.895 53.7893 175.783 54.088 173.436 54.088C168.999 54.088 165.703 52.9573 163.548 50.696C161.393 48.4133 160.316 45.32 160.316 41.416V25.992H153.18V19.016H160.316V11.656L170.428 10.44V19.016H181.372L180.38 25.992H170.428V41.416C170.428 43.1013 170.812 44.3067 171.58 45.032C172.348 45.7573 173.575 46.12 175.26 46.12C176.455 46.12 177.543 45.9813 178.524 45.704C179.527 45.4053 180.423 45.032 181.212 44.584L184.572 51.016ZM207.075 17.896C210.574 17.896 213.55 18.6427 216.003 20.136C218.456 21.6293 220.334 23.7307 221.635 26.44C222.936 29.128 223.587 32.2853 223.587 35.912C223.587 39.688 222.926 42.9413 221.603 45.672C220.302 48.3813 218.424 50.4613 215.971 51.912C213.518 53.3627 210.552 54.088 207.075 54.088C203.619 54.088 200.654 53.3733 198.179 51.944C195.726 50.5147 193.838 48.4453 192.515 45.736C191.214 43.0267 190.563 39.7733 190.563 35.976C190.563 32.3707 191.214 29.2133 192.515 26.504C193.838 23.7947 195.726 21.6827 198.179 20.168C200.654 18.6533 203.619 17.896 207.075 17.896ZM207.075 25.352C205.006 25.352 203.47 26.2053 202.467 27.912C201.486 29.5973 200.995 32.2853 200.995 35.976C200.995 39.7307 201.486 42.4507 202.467 44.136C203.47 45.8213 205.006 46.664 207.075 46.664C209.144 46.664 210.67 45.8213 211.651 44.136C212.654 42.4507 213.155 39.7093 213.155 35.912C213.155 32.2427 212.654 29.5653 211.651 27.88C210.67 26.1947 209.144 25.352 207.075 25.352ZM230.73 53V19.016H239.562L240.266 22.952C241.781 21.2453 243.381 19.976 245.066 19.144C246.751 18.312 248.671 17.896 250.826 17.896C253.727 17.896 256.01 18.7813 257.674 20.552C259.338 22.3227 260.17 24.8187 260.17 28.04V53H250.058V30.952C250.058 29.5653 249.962 28.4667 249.77 27.656C249.578 26.824 249.237 26.2373 248.746 25.896C248.277 25.5333 247.626 25.352 246.794 25.352C246.09 25.352 245.397 25.512 244.714 25.832C244.053 26.1307 243.402 26.568 242.762 27.144C242.122 27.72 241.482 28.4133 240.842 29.224V53H230.73ZM289.873 19.016V46.088H298.513V53H270.129V46.088H279.761V25.928H270.449V19.016H289.873ZM283.761 1.224C285.51 1.224 286.94 1.768 288.049 2.856C289.158 3.944 289.713 5.29867 289.713 6.92C289.713 8.54133 289.158 9.90666 288.049 11.016C286.94 12.104 285.51 12.648 283.761 12.648C281.99 12.648 280.54 12.104 279.409 11.016C278.3 9.90666 277.745 8.54133 277.745 6.92C277.745 5.29867 278.3 3.944 279.409 2.856C280.54 1.768 281.99 1.224 283.761 1.224ZM322.2 17.896C325.699 17.896 328.675 18.6427 331.128 20.136C333.581 21.6293 335.459 23.7307 336.76 26.44C338.061 29.128 338.712 32.2853 338.712 35.912C338.712 39.688 338.051 42.9413 336.728 45.672C335.427 48.3813 333.549 50.4613 331.096 51.912C328.643 53.3627 325.677 54.088 322.2 54.088C318.744 54.088 315.779 53.3733 313.304 51.944C310.851 50.5147 308.963 48.4453 307.64 45.736C306.339 43.0267 305.688 39.7733 305.688 35.976C305.688 32.3707 306.339 29.2133 307.64 26.504C308.963 23.7947 310.851 21.6827 313.304 20.168C315.779 18.6533 318.744 17.896 322.2 17.896ZM322.2 25.352C320.131 25.352 318.595 26.2053 317.592 27.912C316.611 29.5973 316.12 32.2853 316.12 35.976C316.12 39.7307 316.611 42.4507 317.592 44.136C318.595 45.8213 320.131 46.664 322.2 46.664C324.269 46.664 325.795 45.8213 326.776 44.136C327.779 42.4507 328.28 39.7093 328.28 35.912C328.28 32.2427 327.779 29.5653 326.776 27.88C325.795 26.1947 324.269 25.352 322.2 25.352ZM412.838 43.208C412.838 44.488 413.009 45.416 413.35 45.992C413.713 46.568 414.289 47.0053 415.078 47.304L412.998 53.96C410.993 53.768 409.297 53.3307 407.91 52.648C406.545 51.944 405.467 50.888 404.678 49.48C403.377 51.0373 401.713 52.2 399.686 52.968C397.659 53.7147 395.59 54.088 393.478 54.088C389.979 54.088 387.185 53.096 385.094 51.112C383.025 49.1067 381.99 46.536 381.99 43.4C381.99 39.7093 383.43 36.8613 386.31 34.856C389.211 32.8507 393.286 31.848 398.534 31.848H403.11V30.568C403.11 28.7973 402.534 27.4853 401.382 26.632C400.251 25.7787 398.587 25.352 396.39 25.352C395.302 25.352 393.905 25.512 392.198 25.832C390.491 26.1307 388.785 26.568 387.078 27.144L384.742 20.424C386.939 19.592 389.222 18.9627 391.59 18.536C393.979 18.1093 396.113 17.896 397.99 17.896C403.046 17.896 406.779 18.9307 409.19 21C411.622 23.048 412.838 26.0133 412.838 29.896V43.208ZM396.966 46.856C398.054 46.856 399.195 46.536 400.39 45.896C401.585 45.2347 402.491 44.3067 403.11 43.112V37.608H400.614C397.798 37.608 395.729 38.0453 394.406 38.92C393.083 39.7733 392.422 41.032 392.422 42.696C392.422 43.9973 392.817 45.0213 393.606 45.768C394.417 46.4933 395.537 46.856 396.966 46.856ZM422.605 53V19.016H431.437L432.141 22.952C433.656 21.2453 435.256 19.976 436.941 19.144C438.626 18.312 440.546 17.896 442.701 17.896C445.602 17.896 447.885 18.7813 449.549 20.552C451.213 22.3227 452.045 24.8187 452.045 28.04V53H441.933V30.952C441.933 29.5653 441.837 28.4667 441.645 27.656C441.453 26.824 441.112 26.2373 440.621 25.896C440.152 25.5333 439.501 25.352 438.669 25.352C437.965 25.352 437.272 25.512 436.589 25.832C435.928 26.1307 435.277 26.568 434.637 27.144C433.997 27.72 433.357 28.4133 432.717 29.224V53H422.605ZM491.572 51.016C490.249 51.8693 488.649 52.5947 486.772 53.192C484.895 53.7893 482.783 54.088 480.436 54.088C475.999 54.088 472.703 52.9573 470.548 50.696C468.393 48.4133 467.316 45.32 467.316 41.416V25.992H460.18V19.016H467.316V11.656L477.428 10.44V19.016H488.372L487.38 25.992H477.428V41.416C477.428 43.1013 477.812 44.3067 478.58 45.032C479.348 45.7573 480.575 46.12 482.26 46.12C483.455 46.12 484.543 45.9813 485.524 45.704C486.527 45.4053 487.423 45.032 488.212 44.584L491.572 51.016ZM514.075 17.896C517.574 17.896 520.55 18.6427 523.003 20.136C525.456 21.6293 527.334 23.7307 528.635 26.44C529.936 29.128 530.587 32.2853 530.587 35.912C530.587 39.688 529.926 42.9413 528.603 45.672C527.302 48.3813 525.424 50.4613 522.971 51.912C520.518 53.3627 517.552 54.088 514.075 54.088C510.619 54.088 507.654 53.3733 505.179 51.944C502.726 50.5147 500.838 48.4453 499.515 45.736C498.214 43.0267 497.563 39.7733 497.563 35.976C497.563 32.3707 498.214 29.2133 499.515 26.504C500.838 23.7947 502.726 21.6827 505.179 20.168C507.654 18.6533 510.619 17.896 514.075 17.896ZM514.075 25.352C512.006 25.352 510.47 26.2053 509.467 27.912C508.486 29.5973 507.995 32.2853 507.995 35.976C507.995 39.7307 508.486 42.4507 509.467 44.136C510.47 45.8213 512.006 46.664 514.075 46.664C516.144 46.664 517.67 45.8213 518.651 44.136C519.654 42.4507 520.155 39.7093 520.155 35.912C520.155 32.2427 519.654 29.5653 518.651 27.88C517.67 26.1947 516.144 25.352 514.075 25.352ZM551.362 46.856C553.047 46.856 554.402 46.5893 555.426 46.056C556.471 45.5227 556.994 44.7227 556.994 43.656C556.994 42.9307 556.791 42.3227 556.386 41.832C555.981 41.3413 555.202 40.872 554.05 40.424C552.898 39.976 551.191 39.4427 548.93 38.824C546.861 38.2693 545.026 37.5653 543.426 36.712C541.847 35.8587 540.61 34.76 539.714 33.416C538.839 32.072 538.402 30.3973 538.402 28.392C538.402 26.3653 538.967 24.5627 540.098 22.984C541.229 21.4053 542.893 20.168 545.09 19.272C547.287 18.3547 549.975 17.896 553.154 17.896C556.183 17.896 558.818 18.2907 561.058 19.08C563.319 19.848 565.271 20.8293 566.914 22.024L562.882 27.976C561.474 27.1013 559.959 26.408 558.338 25.896C556.717 25.3627 555.085 25.096 553.442 25.096C551.799 25.096 550.573 25.32 549.762 25.768C548.973 26.1947 548.578 26.8453 548.578 27.72C548.578 28.296 548.781 28.7973 549.186 29.224C549.613 29.6293 550.402 30.056 551.554 30.504C552.706 30.9307 554.391 31.464 556.61 32.104C558.807 32.7227 560.717 33.4373 562.338 34.248C563.981 35.0587 565.25 36.1467 566.146 37.512C567.042 38.856 567.49 40.6373 567.49 42.856C567.49 45.3307 566.754 47.4107 565.282 49.096C563.81 50.76 561.858 52.008 559.426 52.84C556.994 53.672 554.327 54.088 551.426 54.088C548.141 54.088 545.239 53.6187 542.722 52.68C540.205 51.7413 538.061 50.504 536.29 48.968L541.378 43.272C542.701 44.296 544.194 45.1493 545.858 45.832C547.543 46.5147 549.378 46.856 551.362 46.856Z" fill="#F0E3CA"/>
</svg>
